<?xml version="1.0" encoding="UTF-8" standalone="no"?>
<svg
   role="img"
   focusable="false"
   aria-hidden="true"
   viewBox="0 0 14 14"
   version="1.1"
   id="svg2"
   sodipodi:docname="icons8-priority.svg"
   inkscape:version="1.4-dev (1:1.4.0-dev+202403210151+2fe0648968)"
   xmlns:inkscape="http://www.inkscape.org/namespaces/inkscape"
   xmlns:sodipodi="http://sodipodi.sourceforge.net/DTD/sodipodi-0.dtd"
   xmlns="http://www.w3.org/2000/svg"
   xmlns:svg="http://www.w3.org/2000/svg">
  <defs
     id="defs2" />
  <sodipodi:namedview
     id="namedview2"
     pagecolor="#ffffff"
     bordercolor="#999999"
     borderopacity="1"
     inkscape:showpageshadow="2"
     inkscape:pageopacity="0"
     inkscape:pagecheckerboard="0"
     inkscape:deskcolor="#d1d1d1"
     inkscape:zoom="50.928571"
     inkscape:cx="7.0000001"
     inkscape:cy="7.0000001"
     inkscape:window-width="1920"
     inkscape:window-height="960"
     inkscape:window-x="0"
     inkscape:window-y="0"
     inkscape:window-maximized="1"
     inkscape:current-layer="svg2" />
  <path
     fill="#f44336"
     d="M6.2244898 12.67346931L1.3265307 7.7755102c-.43537415-.43537414-.43537415-1.11564624 0-1.55102039l4.8979591-4.89795913c.43537414-.43537414 1.11564624-.43537414 1.55102039 0l4.89795912 4.89795912c.43537414.43537415.43537414 1.11564625 0 1.5510204L7.7755102 12.6734693c-.43537415.43537415-1.14285713.43537415-1.5510204 0z"
     id="path1"
     style="fill:none;stroke:#f5deb3;stroke-opacity:1;stroke-width:0.4;stroke-dasharray:none" />
  <path
     fill="#fff"
     d="M6.33333334 9.38095235c0-.08163265.02721089-.1632653.05442177-.24489796.02721089-.08163265.08163265-.13605442.13605442-.19047619.05442177-.05442176.13605442-.10884353.21768707-.13605442.08163266-.02721088.1632653-.05442176.27210884-.05442176.10884354 0 .1904762.02721088.27210884.05442176.08163266.02721089.1632653.08163266.21768708.13605442.05442176.05442177.10884353.10884354.13605442.1904762.02721088.08163264.05442176.1632653.05442176.24489795s-.02721088.1632653-.05442176.24489795c-.02721089.08163266-.08163266.13605442-.13605442.1904762-.05442177.05442176-.13605442.10884353-.21768708.13605441-.08163265.02721089-.1632653.05442177-.27210884.05442177-.10884353 0-.19047618-.02721088-.27210884-.05442177-.08163265-.02721088-.13605442-.08163265-.21768707-.13605442-.05442177-.05442177-.10884353-.10884353-.13605442-.19047619-.02721088-.08163265-.05442177-.13605442-.05442177-.24489795zm1.14285713-1.25170067h-.97959182L6.36054423 4.0204082h1.25170066l-.13605442 4.10884348z"
     id="path2"
     style="stroke:#f5deb3;stroke-opacity:1;stroke-width:0.4;stroke-dasharray:none;fill:#ffffff;fill-opacity:1" />
</svg>
