<?xml version="1.0" encoding="UTF-8" standalone="no"?>
<svg
   viewBox="0 0 429.21775 489.18609"
   version="1.1"
   id="svg1"
   sodipodi:docname="icons8-basura.svg"
   width="429.21774"
   height="489.1861"
   inkscape:version="1.4-dev (1:1.4.0-dev+202403210151+2fe0648968)"
   xmlns:inkscape="http://www.inkscape.org/namespaces/inkscape"
   xmlns:sodipodi="http://sodipodi.sourceforge.net/DTD/sodipodi-0.dtd"
   xmlns="http://www.w3.org/2000/svg"
   xmlns:svg="http://www.w3.org/2000/svg">
  <defs
     id="defs1" />
  <sodipodi:namedview
     id="namedview1"
     pagecolor="#ffffff"
     bordercolor="#999999"
     borderopacity="1"
     inkscape:showpageshadow="2"
     inkscape:pageopacity="0"
     inkscape:pagecheckerboard="0"
     inkscape:deskcolor="#d1d1d1"
     inkscape:zoom="0.98470144"
     inkscape:cx="191.42858"
     inkscape:cy="277.74916"
     inkscape:window-width="1920"
     inkscape:window-height="960"
     inkscape:window-x="0"
     inkscape:window-y="0"
     inkscape:window-maximized="1"
     inkscape:current-layer="svg1" />
  <!--!Font Awesome Free 6.5.2 by @fontawesome - https://fontawesome.com License - https://fontawesome.com/license/free Copyright 2024 Fonticons, Inc.-->
  <path
     fill="#f5deb3"
     d="m 165.30395,56.220571 -17.51017,26.173084 h 133.6302 L 263.91381,56.220571 c -1.38238,-2.027491 -3.68635,-3.317713 -6.17463,-3.317713 h -86.35274 c -2.48831,0 -4.79226,1.198062 -6.17464,3.317713 z M 300.7773,31.706346 334.59957,82.393655 h 12.71789 44.23621 7.37269 c 12.25713,0 22.11811,9.860987 22.11811,22.118095 0,12.25711 -9.86098,22.1181 -22.11811,22.1181 h -7.37269 v 280.16258 c 0,40.73416 -32.99283,73.727 -73.727,73.727 H 111.39109 c -40.734174,0 -73.727004,-32.99284 -73.727004,-73.727 V 126.62985 h -7.372699 c -12.257114,0 -22.118098,-9.86099 -22.118098,-22.1181 0,-12.257108 9.860984,-22.118095 22.118098,-22.118095 h 7.372699 44.236197 12.717905 L 128.44046,31.614187 c 9.5845,-14.284605 25.71229,-22.9475275 42.94598,-22.9475275 h 86.35274 c 17.23368,0 33.36145,8.6629225 42.94596,22.9475275 z M 126.13648,377.30162 V 185.61145 m 85.19621,191.69017 V 185.61145 m 91.74859,0 v 191.69017"
     id="path1"
     style="fill:none;fill-opacity:1;stroke:#f5deb3;stroke-width:13.7696;stroke-dasharray:none;stroke-opacity:1"
     sodipodi:nodetypes="ccccssccccccssscsssscsssccccsscccccccc" />
</svg>
