<?xml version="1.0" encoding="UTF-8" standalone="no"?>
<svg
   viewBox="0 0 498.83527 500.85718"
   version="1.1"
   id="svg1"
   sodipodi:docname="icons8-edit.svg"
   inkscape:version="1.4-dev (1:1.4.0-dev+202403210151+2fe0648968)"
   inkscape:export-filename="icons8-edit.png"
   inkscape:export-xdpi="96"
   inkscape:export-ydpi="96"
   width="498.83527"
   height="500.85718"
   xmlns:inkscape="http://www.inkscape.org/namespaces/inkscape"
   xmlns:sodipodi="http://sodipodi.sourceforge.net/DTD/sodipodi-0.dtd"
   xmlns="http://www.w3.org/2000/svg"
   xmlns:svg="http://www.w3.org/2000/svg">
  <defs
     id="defs1" />
  <sodipodi:namedview
     id="namedview1"
     pagecolor="#ffffff"
     bordercolor="#999999"
     borderopacity="1"
     inkscape:showpageshadow="2"
     inkscape:pageopacity="0"
     inkscape:pagecheckerboard="0"
     inkscape:deskcolor="#d1d1d1"
     inkscape:zoom="0.98470144"
     inkscape:cx="173.6567"
     inkscape:cy="246.26754"
     inkscape:window-width="1920"
     inkscape:window-height="960"
     inkscape:window-x="0"
     inkscape:window-y="0"
     inkscape:window-maximized="1"
     inkscape:current-layer="svg1" />
  <!--!Font Awesome Free 6.5.2 by @fontawesome - https://fontawesome.com License - https://fontawesome.com/license/free Copyright 2024 Fonticons, Inc.-->
  <path
     d="m 426.19139,61.427847 11.43973,11.487305 c 8.88706,8.924021 8.88706,23.354345 0,32.183428 L 410.11905,132.82002 366.53463,89.054339 394.0467,61.427847 c 8.88706,-8.924021 23.25763,-8.924021 32.05015,0 z M 361.99657,29.244409 175.46283,216.45898 c -8.22526,8.25947 -14.18148,18.41766 -17.30141,29.52522 l -27.03935,94.9364 c -2.26903,7.97466 -9.07396,25.6285 -3.2123,31.51455 5.86169,5.88607 23.35001,-1.03998 31.29163,-3.31844 l 94.5432,-27.15181 c 11.15609,-3.22785 21.27222,-9.20883 29.40294,-17.37336 L 469.68126,137.37696 c 26.56664,-26.67713 26.56664,-69.96812 0,-96.645247 L 458.24154,29.244409 c -26.56664,-26.6771275 -69.67834,-26.6771275 -96.24497,0 z M 198.34229,66.269604 H 92.453908 c -45.947994,0 -83.1980139,37.404936 -83.1980139,83.544026 v 258.227 c 0,46.1391 37.2500199,83.54404 83.1980139,83.54404 H 349.6114 c 45.948,0 83.19801,-37.40494 83.19801,-83.54404 V 301.71187"
     id="path1"
     style="fill:none;stroke:#f5deb3;stroke-width:14.1165;stroke-dasharray:none;stroke-opacity:1"
     sodipodi:nodetypes="cscccsccccccsccccssccssssssc" />
</svg>
